# xmcd CD database file
#
# Track frame offsets:
#	150
#	68892
#	121067
#	239822
#
# Disc length: 4297 seconds
#
# Revision: 0
# Processed by: cddbd v1.5.1PL0 Copyright (c) Steve Scherf et al.
# Submitted via: CDex 1.51
#
DISCID=3410c704
DTITLE=Buck Clayton - A Buck Clayton Jam Session
DYEAR=1953
DGENRE=Jazz
TTITLE0=Boss Blues
TTITLE1=Case Closed
TTITLE2=Lazy Blues
TTITLE3=Jayhawk
EXTD=YEAR: 1953
EXTT0=
EXTT1=
EXTT2=
EXTT3=
PLAYORDER=
